<?xml version="1.0" standalone="no"?>
<!DOCTYPE svg PUBLIC "-//W3C//DTD SVG 20010904//EN"
 "http://www.w3.org/TR/2001/REC-SVG-20010904/DTD/svg10.dtd">
<svg version="1.0" xmlns="http://www.w3.org/2000/svg"
 width="1024.000000pt" height="1024.000000pt" viewBox="0 0 1024.000000 1024.000000"
 preserveAspectRatio="xMidYMid meet">
<metadata>
Created by potrace 1.14, written by Peter Selinger 2001-2017
</metadata>
<g transform="translate(0.000000,1024.000000) scale(0.100000,-0.100000)"
fill="#000000" stroke="none">
<path d="M4815 8279 c-291 -37 -650 -149 -925 -289 -585 -299 -1100 -878
-1300 -1465 -198 -579 -198 -1219 0 -1766 132 -366 366 -727 644 -997 434
-420 973 -678 1571 -753 134 -17 486 -17 600 0 413 60 764 178 1090 366 418
241 765 612 996 1067 219 433 324 974 279 1443 -70 723 -411 1347 -995 1818
-258 208 -517 346 -859 458 -167 55 -326 91 -500 114 -128 16 -480 19 -601 4z
m495 -439 c238 -21 506 -100 745 -219 262 -129 406 -234 615 -445 l105 -106
-80 0 c-97 0 -155 -23 -185 -72 -23 -38 -27 -117 -7 -151 9 -17 13 -236 17
-962 l5 -940 26 -55 c15 -30 47 -77 73 -103 43 -44 47 -52 44 -90 l-3 -42 -55
-6 c-72 -9 -108 -23 -149 -62 -107 -102 -106 -273 3 -376 l36 -35 0 -123 0
-124 -46 -49 c-66 -71 -193 -168 -282 -217 l-77 -43 150 0 c174 0 212 8 266
57 80 72 84 87 87 353 l3 235 -36 19 c-87 47 -100 153 -28 220 55 52 125 47
185 -13 34 -35 38 -44 38 -91 0 -48 -4 -56 -40 -92 l-40 -40 0 -228 c0 -257
-7 -293 -69 -376 -26 -36 -54 -58 -106 -84 l-70 -35 -954 -3 c-863 -2 -960 -1
-1005 14 -56 18 -304 139 -323 157 -9 9 232 13 995 15 995 2 1007 3 1047 23
56 29 94 67 116 116 18 40 19 94 19 1503 0 1402 -1 1464 -19 1504 -23 52 -64
94 -116 117 -33 15 -66 19 -191 19 -123 0 -153 3 -157 14 -15 38 -58 51 -186
56 l-126 5 -7 67 c-9 95 -32 158 -84 228 -126 172 -328 220 -520 125 -129 -63
-214 -187 -236 -342 l-11 -83 -119 0 -118 0 -38 -34 -37 -34 -155 -4 c-171 -4
-187 -8 -255 -73 -21 -19 -38 -35 -39 -35 -1 0 -2 16 -4 36 -3 47 -27 87 -66
110 -26 16 -58 20 -211 24 l-180 5 132 132 c247 247 533 427 849 532 126 43
316 86 438 100 103 12 303 12 436 1z m-94 -417 c33 -11 67 -34 106 -73 72 -73
98 -147 98 -285 l0 -93 153 -4 c112 -2 159 -7 170 -17 14 -11 17 -33 17 -111
0 -89 -2 -99 -24 -123 -13 -14 -39 -28 -57 -32 -19 -3 -287 -5 -596 -3 l-563
3 -27 28 c-26 26 -28 33 -31 130 -4 103 -4 103 23 115 16 8 80 12 173 12 l147
0 0 112 c0 103 3 118 28 173 42 91 107 148 197 176 44 13 135 9 186 -8z
m-1424 -490 c26 -23 23 -59 -7 -79 l-25 -16 0 -437 c-1 -338 -4 -444 -14 -473
-27 -77 -107 -158 -170 -174 -24 -6 -26 -11 -26 -55 l0 -49 -160 0 -160 0 0
48 c0 46 -1 49 -40 66 -52 23 -121 101 -143 162 -15 44 -17 94 -17 480 l0 430
-30 22 c-33 25 -38 52 -14 76 13 14 64 16 401 16 346 0 388 -2 405 -17z m3430
0 c26 -23 23 -58 -7 -77 l-25 -16 0 -923 0 -923 -26 -52 c-29 -58 -81 -106
-132 -123 -26 -9 -32 -15 -25 -28 4 -9 9 -59 11 -112 l3 -97 -101 -7 c-64 -5
-105 -4 -112 3 -11 11 -7 188 5 213 6 12 0 19 -25 30 -46 19 -105 75 -131 123
l-22 41 -3 932 c-2 918 -3 933 -22 943 -24 13 -26 47 -3 72 15 17 38 18 306
18 256 0 293 -2 309 -17z m-2872 -188 c0 -27 40 -96 72 -125 55 -50 69 -51
708 -48 537 3 598 5 626 20 45 25 92 82 104 128 l11 41 97 -3 96 -3 23 -34 23
-34 -2 -1310 -3 -1309 -24 -19 c-22 -18 -53 -19 -967 -19 l-943 0 -28 24 -28
24 -3 1284 c-1 705 0 1297 3 1314 3 18 15 44 26 58 19 25 25 26 115 26 78 0
94 -3 94 -15z m-465 -2862 c-1 -5 -126 105 -191 168 -61 59 -70 72 -66 97 4
32 -22 92 -63 140 -19 23 -25 41 -25 77 0 28 4 44 10 40 6 -3 10 -15 10 -27 0
-19 1 -20 25 -4 21 14 24 14 19 1 -4 -10 0 -15 15 -15 14 0 19 5 15 15 -5 13
-2 14 20 5 15 -5 25 -6 22 -2 -3 5 12 14 32 21 48 17 119 85 143 136 58 124
-25 286 -158 311 l-33 6 0 69 c0 67 1 69 25 69 55 0 131 63 161 135 37 87 9
205 -63 264 -64 53 -177 71 -231 37 -8 -5 -12 5 -12 33 0 56 8 71 39 71 37 0
49 10 65 55 8 22 15 33 15 25 1 -8 10 4 22 28 12 23 25 42 30 42 5 0 9 4 9 9
0 5 22 32 49 60 89 92 95 117 101 466 3 165 7 -292 10 -1015 3 -723 5 -1316 5
-1317z m-857 1857 c20 -19 51 -45 68 -58 26 -19 32 -32 36 -73 6 -60 14 -70
62 -72 l36 -2 0 -59 c0 -52 -2 -57 -17 -50 -10 4 -43 10 -74 12 -43 3 -66 -1
-97 -17 -22 -11 -43 -25 -47 -31 -14 -22 -23 -7 -34 53 -20 114 -31 230 -31
337 l0 105 30 -55 c17 -30 47 -71 68 -90z m402 -361 l0 -170 -37 3 -38 3 0
150 c0 83 3 158 7 168 5 11 18 17 38 17 l30 0 0 -171z m-224 -64 c39 -25 58
-63 58 -117 0 -45 -4 -54 -37 -84 -32 -29 -44 -34 -87 -34 -89 0 -140 45 -140
125 0 52 23 90 72 114 47 24 93 23 134 -4z m485 10 c41 -22 69 -71 69 -124 0
-37 -6 -49 -39 -82 -31 -31 -46 -39 -75 -39 -91 0 -164 90 -135 167 30 80 109
114 180 78z m-223 -234 c6 -16 22 -37 37 -47 73 -48 83 -187 19 -264 -37 -43
-75 -60 -137 -60 -61 0 -101 22 -148 80 -60 74 -41 196 37 242 18 10 37 32 43
49 10 28 12 29 75 29 62 0 64 -1 74 -29z m231 -359 c37 -20 71 -73 71 -110 0
-39 -30 -90 -65 -112 -86 -53 -195 5 -195 105 0 103 100 165 189 117z m-492
-12 c64 -39 84 -111 49 -178 -31 -60 -117 -82 -184 -48 -42 22 -76 87 -67 132
7 38 48 92 79 104 36 15 90 11 123 -10z m223 -236 l0 -135 -37 3 -38 3 1 45
c1 25 2 84 3 133 l1 87 35 0 35 0 0 -136z m3510 -73 c0 -119 -79 -221 -171
-221 l-32 0 46 40 c51 45 87 123 87 190 0 39 1 40 35 40 l35 0 0 -49z m-3473
-176 c112 -74 60 -235 -76 -235 -49 0 -104 43 -121 96 -36 109 98 204 197 139z"/>
<path d="M5015 7288 c-115 -105 15 -292 154 -221 47 24 72 62 78 116 5 42 3
48 -34 88 -37 39 -45 43 -101 47 -57 4 -62 3 -97 -30z m123 -67 c8 -5 12 -21
10 -37 -3 -25 -8 -29 -40 -32 -29 -3 -38 1 -43 17 -14 44 33 78 73 52z"/>
<path d="M3118 6795 c-20 -44 1 -55 108 -55 91 0 95 1 106 25 20 44 -1 55
-108 55 -91 0 -95 -1 -106 -25z"/>
<path d="M3132 6618 c-17 -17 -15 -65 4 -72 26 -10 154 -7 175 4 11 6 19 21
19 35 0 14 -8 29 -19 35 -27 14 -164 13 -179 -2z"/>
<path d="M3124 6406 c-3 -8 -4 -25 -2 -38 3 -21 8 -23 78 -26 90 -4 116 2 130
27 7 15 6 24 -6 35 -21 22 -192 23 -200 2z"/>
<path d="M6732 6808 c-7 -7 -12 -21 -12 -33 0 -41 16 -45 190 -45 174 0 190 4
190 45 0 41 -16 45 -190 45 -116 0 -170 -4 -178 -12z"/>
<path d="M6736 6624 c-9 -8 -16 -24 -16 -33 0 -37 22 -42 195 -39 183 3 195 7
181 61 l-6 27 -169 0 c-141 0 -172 -3 -185 -16z"/>
<path d="M6730 6445 c-7 -8 -10 -25 -6 -40 l6 -25 158 1 c191 1 207 5 207 44
l0 30 -176 3 c-147 2 -178 0 -189 -13z"/>
<path d="M6731 6236 c-7 -8 -11 -27 -9 -43 l3 -28 185 0 185 0 0 40 0 40 -176
3 c-145 2 -178 0 -188 -12z"/>
<path d="M6731 6066 c-7 -8 -11 -27 -9 -43 l3 -28 185 0 c171 0 185 1 188 18
2 10 1 29 -2 43 l-6 24 -174 0 c-139 0 -176 -3 -185 -14z"/>
<path d="M6732 5888 c-13 -13 -15 -37 -6 -62 5 -14 31 -16 185 -16 l179 0 6
24 c15 61 15 61 -176 64 -128 2 -179 -1 -188 -10z"/>
<path d="M6724 5596 c-3 -14 -3 -34 1 -45 6 -20 13 -21 179 -21 190 0 200 3
194 57 l-3 28 -182 3 -183 2 -6 -24z"/>
<path d="M6724 5426 c-3 -13 -4 -33 -2 -43 3 -17 17 -18 188 -18 l185 0 0 40
0 40 -182 3 -183 2 -6 -24z"/>
<path d="M6724 5256 c-3 -14 -3 -34 1 -45 6 -20 13 -21 185 -21 l180 0 6 24
c15 61 16 61 -183 64 l-183 2 -6 -24z"/>
<path d="M4609 6413 c0 -5 -1 -51 -2 -103 l-2 -95 -117 -3 -118 -3 0 -144 0
-144 118 -3 117 -3 1 -100 2 -100 143 0 144 0 5 102 5 102 110 -1 110 0 3 146
3 146 -116 0 -115 0 0 105 0 105 -145 0 c-80 0 -145 -3 -146 -7z"/>
<path d="M4386 5535 c-30 -15 -33 -59 -4 -79 20 -14 99 -16 734 -16 693 0 711
0 729 20 23 25 13 68 -18 75 -45 10 -1420 10 -1441 0z"/>
<path d="M4377 5182 c-21 -23 -22 -46 -2 -62 20 -16 1452 -15 1472 1 18 16 16
43 -5 62 -17 16 -82 17 -734 17 -680 0 -716 -1 -731 -18z"/>
<path d="M4377 4842 c-22 -24 -21 -45 1 -65 17 -16 83 -17 738 -17 547 0 723
3 732 12 18 18 15 53 -6 71 -17 16 -82 17 -734 17 -680 0 -716 -1 -731 -18z"/>
<path d="M4374 4379 c-17 -19 -17 -23 -3 -47 l15 -27 404 0 404 0 13 25 c10
20 10 29 -1 45 -13 19 -25 20 -413 23 -394 2 -400 2 -419 -19z"/>
<path d="M3122 2428 c-9 -9 -12 -67 -12 -218 0 -228 4 -244 55 -238 l30 3 5
97 c5 106 20 138 62 138 47 0 53 -13 58 -127 l5 -108 35 0 35 0 6 65 c10 101
-3 195 -31 225 -31 33 -77 41 -125 21 -20 -9 -39 -16 -41 -16 -2 0 -4 37 -6
83 l-3 82 -30 3 c-17 2 -36 -3 -43 -10z"/>
<path d="M5096 2425 c-3 -9 -6 -110 -6 -225 0 -227 2 -235 57 -228 l28 3 5
101 c5 111 16 134 60 134 44 0 55 -23 60 -134 l5 -101 28 -3 c50 -6 57 10 57
122 0 122 -15 161 -73 190 -39 18 -59 17 -124 -10 -9 -4 -13 18 -15 78 l-3 83
-36 3 c-26 2 -38 -1 -43 -13z"/>
<path d="M5472 2428 c-13 -13 -14 -162 -3 -348 l6 -105 28 -3 c49 -6 57 11 57
114 0 103 10 124 59 124 44 0 51 -16 51 -121 0 -107 8 -123 57 -117 l28 3 3
128 3 128 -29 29 c-37 37 -87 46 -135 26 l-37 -15 0 78 c0 63 -3 80 -16 85
-25 10 -59 7 -72 -6z"/>
<path d="M5857 2434 c-4 -4 -7 -107 -7 -230 0 -240 -1 -234 55 -234 30 0 35
16 35 108 0 85 15 125 46 130 36 5 48 -23 53 -131 l6 -102 35 0 35 0 5 109 c5
98 7 110 27 123 20 14 24 13 48 -11 23 -23 25 -32 25 -120 0 -94 0 -96 25
-102 47 -12 55 7 55 131 0 107 -1 115 -26 144 -40 47 -92 57 -152 28 -18 -8
-29 -7 -51 6 -36 21 -58 21 -95 2 -15 -8 -30 -15 -32 -15 -2 0 -4 37 -6 83
l-3 82 -35 3 c-20 2 -39 0 -43 -4z"/>
<path d="M4840 2330 c0 -37 -3 -41 -30 -46 -27 -6 -30 -10 -30 -45 0 -37 2
-39 30 -39 l30 0 0 -74 c0 -88 10 -119 45 -142 30 -20 98 -22 120 -4 8 7 15
28 15 47 0 34 -1 35 -30 30 -53 -11 -60 -2 -60 79 l0 74 45 0 c45 0 45 0 45
35 0 35 0 35 -45 35 l-45 0 0 45 0 45 -45 0 -45 0 0 -40z"/>
<path d="M2870 2290 c-46 -11 -107 -76 -116 -125 -13 -71 30 -155 92 -181 104
-43 251 25 172 80 -18 13 -24 13 -42 1 -45 -32 -114 -8 -131 44 -3 11 1 36 9
55 24 56 82 69 129 28 16 -15 20 -14 44 11 l27 26 -23 25 c-14 15 -43 29 -73
35 -27 6 -50 11 -51 10 -1 -1 -18 -5 -37 -9z"/>
<path d="M3582 2293 c-35 -7 -89 -64 -103 -111 -23 -77 13 -161 83 -198 40
-21 127 -18 166 6 39 24 40 33 6 66 -23 24 -26 25 -43 10 -26 -24 -86 -21
-113 7 l-23 22 113 3 112 3 0 42 c0 104 -88 171 -198 150z m89 -83 c10 -6 19
-17 19 -25 0 -12 -15 -15 -67 -15 l-66 0 23 25 c25 26 59 32 91 15z"/>
<path d="M3976 2285 c-21 -11 -32 -12 -42 -4 -7 6 -28 9 -46 7 l-33 -3 0 -155
0 -155 40 0 40 0 5 105 c5 101 6 105 32 119 24 14 28 14 47 -3 18 -17 21 -31
21 -107 0 -106 4 -119 39 -119 44 0 51 16 51 120 0 105 7 120 52 120 39 0 48
-25 48 -134 0 -95 0 -96 27 -102 50 -13 58 3 58 117 0 120 -13 162 -59 186
-39 20 -99 20 -130 -1 -24 -15 -27 -15 -58 4 -39 24 -54 25 -92 5z"/>
<path d="M4512 2293 c-38 -7 -99 -73 -111 -120 -24 -87 30 -179 118 -203 35
-9 51 -8 92 5 117 39 155 171 76 262 -48 54 -98 71 -175 56z m83 -83 c36 -14
58 -68 44 -109 -13 -37 -35 -51 -83 -51 -72 0 -101 87 -47 141 32 31 45 34 86
19z"/>
<path d="M6470 2289 c-63 -26 -100 -85 -100 -160 0 -99 63 -159 167 -159 46 0
67 5 87 21 31 24 33 40 7 63 -15 14 -24 15 -40 7 -32 -18 -96 -13 -114 7 -10
10 -17 22 -17 25 0 4 47 7 105 7 l105 0 0 50 c0 90 -42 137 -128 145 -26 3
-58 0 -72 -6z m105 -89 c10 -11 16 -23 13 -26 -3 -3 -34 -4 -69 -2 l-64 3 23
23 c28 28 73 29 97 2z"/>
<path d="M6866 2285 c-21 -11 -32 -12 -42 -4 -7 6 -28 9 -46 7 l-33 -3 -2
-209 c-1 -126 2 -217 8 -228 8 -14 19 -18 42 -16 l32 3 3 78 c3 70 5 78 20 72
149 -61 278 92 196 233 -18 30 -39 50 -67 63 -51 23 -73 23 -111 4z m74 -80
c49 -25 60 -93 22 -137 -22 -26 -86 -24 -112 4 -34 37 -21 115 24 136 29 14
33 14 66 -3z"/>
<path d="M7103 2294 c-21 -9 -16 -27 47 -165 33 -72 60 -140 60 -150 0 -23
-46 -59 -77 -59 -31 0 -39 -24 -19 -55 36 -54 107 -36 150 38 13 23 43 87 66
142 23 55 56 126 72 159 35 68 31 86 -15 86 -42 0 -47 -5 -87 -102 -17 -43
-35 -80 -39 -83 -4 -2 -23 33 -41 78 -18 45 -38 87 -44 94 -13 14 -56 24 -73
17z"/>
</g>
</svg>
